<?xml version="1.0" encoding="utf-8"?>
<!-- Generator: Adobe Illustrator 15.0.0, SVG Export Plug-In . SVG Version: 6.00 Build 0)  -->
<!DOCTYPE svg PUBLIC "-//W3C//DTD SVG 1.1//EN" "http://www.w3.org/Graphics/SVG/1.1/DTD/svg11.dtd">
<svg version="1.1" id="Layer_1" xmlns="http://www.w3.org/2000/svg" xmlns:xlink="http://www.w3.org/1999/xlink" x="0px" y="0px"
	 width="717px" height="703px" viewBox="0 0 717 703" enable-background="new 0 0 717 703" xml:space="preserve">
<g>
	<g opacity="0.1">
		<path fill="#0A0A0A" d="M451,379.5c0,2.485-2.014,4.5-4.497,4.5H269.497c-2.483,0-4.497-2.015-4.497-4.5v-219
			c0-2.485,2.014-4.5,4.497-4.5h177.006c2.483,0,4.497,2.015,4.497,4.5V379.5z"/>
		<g>
			<path fill="#0A0A0A" d="M313.448,184.346c-0.497,0-0.996-0.188-1.374-0.569l-3.808-3.807l-3.806,3.807
				c-0.762,0.759-1.989,0.759-2.75,0l-3.808-3.807l-3.806,3.807c-0.76,0.759-1.989,0.759-2.749,0l-3.808-3.807l-3.806,3.807
				c-0.76,0.759-1.989,0.759-2.749,0c-0.758-0.757-0.758-1.989,0-2.748l5.182-5.182c0.759-0.758,1.989-0.758,2.748,0l3.807,3.809
				l3.809-3.809c0.758-0.758,1.988-0.758,2.747,0l3.807,3.809l3.807-3.809c0.761-0.758,1.99-0.758,2.749,0l5.18,5.182
				c0.76,0.759,0.76,1.99,0,2.748C314.442,184.157,313.946,184.346,313.448,184.346z"/>
		</g>
		<g>
			<path fill="#0A0A0A" d="M323.379,246h-41.235c-1.19,0-2.157-0.807-2.157-2c0-1.191,0.967-2,2.157-2h41.235
				c1.191,0,2.157,0.809,2.157,2C325.536,245.193,324.57,246,323.379,246z"/>
		</g>
		<g>
			<path fill="#0A0A0A" d="M383.825,246h-6.261c-1.194,0-2.158-0.807-2.158-2c0-1.191,0.964-2,2.158-2h6.261
				c1.19,0,2.158,0.809,2.158,2C385.983,245.193,385.016,246,383.825,246z"/>
		</g>
		<g>
			<path fill="#0A0A0A" d="M424.842,246H411.24c-1.192,0-2.157-0.807-2.157-2c0-1.191,0.965-2,2.157-2h13.602
				c1.191,0,2.16,0.809,2.16,2C427.002,245.193,426.033,246,424.842,246z"/>
		</g>
		<g>
			<path fill="#0A0A0A" d="M309.131,276h-26.987c-1.19,0-2.157-1.808-2.157-2.999c0-1.193,0.967-3.001,2.157-3.001h26.987
				c1.19,0,2.156,1.808,2.156,3.001C311.287,274.192,310.321,276,309.131,276z"/>
		</g>
		<g>
			<path fill="#0A0A0A" d="M334.604,276H316.47c-1.191,0-2.159-1.808-2.159-2.999c0-1.193,0.968-3.001,2.159-3.001h18.134
				c1.193,0,2.158,1.808,2.158,3.001C336.762,274.192,335.797,276,334.604,276z"/>
		</g>
		<g>
			<path fill="#0A0A0A" d="M383.825,276h-6.261c-1.194,0-2.158-1.808-2.158-2.999c0-1.193,0.964-3.001,2.158-3.001h6.261
				c1.19,0,2.158,1.808,2.158,3.001C385.983,274.192,385.016,276,383.825,276z"/>
		</g>
		<g>
			<path fill="#0A0A0A" d="M424.842,276H411.24c-1.192,0-2.157-1.808-2.157-2.999c0-1.193,0.965-3.001,2.157-3.001h13.602
				c1.191,0,2.16,1.808,2.16,3.001C427.002,274.192,426.033,276,424.842,276z"/>
		</g>
		<g>
			<path fill="#0A0A0A" d="M424.842,304H411.24c-1.192,0-2.157-1.308-2.157-2.5c0-1.191,0.965-2.5,2.157-2.5h13.602
				c1.191,0,2.16,1.309,2.16,2.5C427.002,302.692,426.033,304,424.842,304z"/>
		</g>
		<g>
			<path fill="#0A0A0A" d="M432.83,317h-30.44c-0.954,0-1.728-1.047-1.728-1.999c0-0.955,0.773-2.001,1.728-2.001h30.44
				c0.951,0,1.727,1.046,1.727,2.001C434.557,315.953,433.781,317,432.83,317z"/>
		</g>
		<g>
			<path fill="#0A0A0A" d="M282.144,232H361v3.078c0,0.953,1.046,1.727,2,1.727c0.955,0,2-0.774,2-1.727V232h32v3.078
				c0,0.953,0.547,1.727,1.5,1.727s1.5-0.774,1.5-1.727V232h32.83c0.951,0,1.727-0.547,1.727-1.5s-0.775-1.5-1.727-1.5H282.144
				c-0.952,0-1.726,0.547-1.726,1.5S281.191,232,282.144,232z"/>
			<path fill="#0A0A0A" d="M432.83,259H282.144c-0.952,0-1.726,0.047-1.726,1c0,0.955,0.773,1,1.726,1H432.83
				c0.951,0,1.727-0.045,1.727-1C434.557,259.047,433.781,259,432.83,259z"/>
			<path fill="#0A0A0A" d="M432.83,286H400v-3.429c0-0.955-0.547-1.727-1.5-1.727s-1.5,0.772-1.5,1.727V286h-32v-3.429
				c0-0.955-1.045-1.727-2-1.727c-0.954,0-2,0.772-2,1.727V286h-78.856c-0.952,0-1.726,0.546-1.726,1.5c0,0.953,0.773,1.5,1.726,1.5
				H432.83c0.951,0,1.727-0.547,1.727-1.5C434.557,286.546,433.781,286,432.83,286z"/>
			<path fill="#0A0A0A" d="M398.5,274.317c0.953,0,1.5-0.773,1.5-1.727v-5.995c0-0.954-0.547-1.728-1.5-1.728s-1.5,0.774-1.5,1.728
				v5.995C397,273.544,397.547,274.317,398.5,274.317z"/>
			<path fill="#0A0A0A" d="M398.5,244.145c-0.953,0-1.5,0.772-1.5,1.728v5.992c0,0.955,0.547,1.728,1.5,1.728s1.5-0.773,1.5-1.728
				v-5.992C400,244.917,399.453,244.145,398.5,244.145z"/>
			<path fill="#0A0A0A" d="M363,274.317c0.955,0,2-0.773,2-1.727v-5.995c0-0.954-1.045-1.728-2-1.728c-0.954,0-2,0.774-2,1.728
				v5.995C361,273.544,362.046,274.317,363,274.317z"/>
			<path fill="#0A0A0A" d="M363,244.145c-0.954,0-2,0.772-2,1.728v5.992c0,0.955,1.046,1.728,2,1.728c0.955,0,2-0.773,2-1.728
				v-5.992C365,244.917,363.955,244.145,363,244.145z"/>
		</g>
		<g>
			<g>
				<path fill="#0A0A0A" d="M414.521,212.581c-11.165,0-20.247-9.084-20.247-20.248c0-11.164,9.082-20.247,20.247-20.247
					c11.164,0,20.247,9.083,20.247,20.247C434.768,203.497,425.685,212.581,414.521,212.581z M414.521,175.686
					c-9.181,0-16.647,7.468-16.647,16.647s7.467,16.647,16.647,16.647s16.648-7.469,16.648-16.647S423.701,175.686,414.521,175.686z
					"/>
			</g>
			<g>
				<path fill="#0A0A0A" d="M410.634,197.595L410.67,199h-2.178l0.037-1.351c-0.759-0.073-1.604-0.369-2.162-0.586
					c0.09-0.63,0.252-1.778,0.451-2.281c0.754,0.288,2.395,0.425,3.238,0.425c0.864,0,1.209-0.148,1.209-0.832
					c0-1.512-4.987-0.623-4.987-4.187c0-1.494,1.241-2.687,2.951-3.047L409.193,186h2.178l-0.036,1.027
					c0.595,0.036,1.261,0.154,1.766,0.262c-0.02,0.54-0.126,1.626-0.271,2.22c-0.719-0.162-2.287-0.26-2.953-0.26
					c-0.882,0-1.205,0.15-1.205,0.763c0,1.367,4.986,0.786,4.986,4.277C413.658,195.945,412.38,197.253,410.634,197.595z"/>
				<path fill="#0A0A0A" d="M419.632,197.595l0.036,1.405h-2.178l0.035-1.351c-0.755-0.073-1.602-0.369-2.16-0.586
					c0.09-0.63,0.252-1.778,0.45-2.281c0.757,0.288,2.395,0.425,3.241,0.425c0.864,0,1.207-0.148,1.207-0.832
					c0-1.512-4.988-0.623-4.988-4.187c0-1.494,1.243-2.687,2.953-3.047L418.192,186h2.178l-0.036,1.027
					c0.594,0.036,1.26,0.154,1.764,0.262c-0.017,0.54-0.127,1.626-0.27,2.22c-0.721-0.162-2.286-0.26-2.952-0.26
					c-0.881,0-1.206,0.15-1.206,0.763c0,1.367,4.986,0.786,4.986,4.277C422.656,195.945,421.378,197.253,419.632,197.595z"/>
			</g>
		</g>
	</g>
	<g>
		<path fill="#FFFFFF" d="M447,377.501c0,1.485-2.014,3.499-4.498,3.499H265.498c-2.484,0-4.498-2.014-4.498-4.499V157.499
			c0-2.485,2.014-4.499,4.498-4.499h177.004c2.484,0,4.498,2.014,4.498,5.499V377.501z"/>
		<g>
			<path fill="#E8534F" d="M311.082,181.98c-0.497,0-0.995-0.188-1.374-0.568l-3.808-3.808l-3.806,3.808
				c-0.76,0.758-1.988,0.758-2.748,0l-3.809-3.808l-3.806,3.808c-0.761,0.758-1.99,0.758-2.749,0l-3.807-3.808l-3.807,3.808
				c-0.76,0.758-1.989,0.758-2.75,0c-0.757-0.758-0.757-1.989,0-2.749l5.183-5.181c0.759-0.758,1.988-0.758,2.748,0l3.808,3.809
				l3.808-3.809c0.758-0.758,1.988-0.758,2.747,0l3.808,3.809l3.807-3.809c0.76-0.758,1.988-0.758,2.748,0l5.182,5.181
				c0.758,0.759,0.758,1.991,0,2.749C312.077,181.792,311.581,181.98,311.082,181.98z"/>
		</g>
		<g>
			<path fill="#E8534F" d="M321.013,246h-41.234c-1.19,0-2.157-1.308-2.157-2.5c0-1.191,0.967-2.5,2.157-2.5h41.234
				c1.192,0,2.157,1.309,2.157,2.5C323.17,244.692,322.205,246,321.013,246z"/>
		</g>
		<g>
			<path fill="#E8534F" d="M381.459,246h-6.261c-1.192,0-2.158-1.308-2.158-2.5c0-1.191,0.966-2.5,2.158-2.5h6.261
				c1.191,0,2.159,1.309,2.159,2.5C383.618,244.692,382.65,246,381.459,246z"/>
		</g>
		<g>
			<path fill="#E8534F" d="M422.477,246h-13.602c-1.192,0-2.158-1.308-2.158-2.5c0-1.191,0.966-2.5,2.158-2.5h13.602
				c1.19,0,2.16,1.309,2.16,2.5C424.637,244.692,423.667,246,422.477,246z"/>
		</g>
		<g>
			<path fill="#E8534F" d="M321.013,276h-41.234c-1.19,0-2.157-1.308-2.157-2.5c0-1.191,0.967-2.5,2.157-2.5h41.234
				c1.192,0,2.157,1.309,2.157,2.5C323.17,274.692,322.205,276,321.013,276z"/>
		</g>
		<g>
			<path fill="#E8534F" d="M381.459,276h-6.261c-1.192,0-2.158-1.308-2.158-2.5c0-1.191,0.966-2.5,2.158-2.5h6.261
				c1.191,0,2.159,1.309,2.159,2.5C383.618,274.692,382.65,276,381.459,276z"/>
		</g>
		<g>
			<path fill="#E8534F" d="M422.477,276h-13.602c-1.192,0-2.158-1.308-2.158-2.5c0-1.191,0.966-2.5,2.158-2.5h13.602
				c1.19,0,2.16,1.309,2.16,2.5C424.637,274.692,423.667,276,422.477,276z"/>
		</g>
		<g>
			<path fill="#E8534F" d="M422.477,303h-13.602c-1.192,0-2.158-1.308-2.158-2.5c0-1.191,0.966-2.5,2.158-2.5h13.602
				c1.19,0,2.16,1.309,2.16,2.5C424.637,301.692,423.667,303,422.477,303z"/>
		</g>
		<g>
			<path fill="#E8534F" d="M430.465,316h-30.44c-0.954,0-1.726-1.547-1.726-2.5s0.771-2.5,1.726-2.5h30.44
				c0.951,0,1.727,1.547,1.727,2.5S431.416,316,430.465,316z"/>
		</g>
		<g>
			<path fill="#E8534F" d="M279.778,232H359v2.663c0,0.953,0.548,1.728,1.5,1.728s1.5-0.774,1.5-1.728V232h32v2.663
				c0,0.953,0.549,1.728,1.5,1.728c0.955,0,1.5-0.774,1.5-1.728V232h33.465c0.951,0,1.727-2.045,1.727-3c0-0.954-0.775-3-1.727-3
				H279.778c-0.953,0-1.727,2.046-1.727,3C278.052,229.955,278.825,232,279.778,232z"/>
			<path fill="#E8534F" d="M430.465,256H279.778c-0.953,0-1.727,1.547-1.727,2.5c0,0.955,0.773,2.5,1.727,2.5h150.687
				c0.951,0,1.727-1.545,1.727-2.5C432.191,257.547,431.416,256,430.465,256z"/>
			<path fill="#E8534F" d="M430.465,286H397v-3.844c0-0.953-0.545-1.726-1.5-1.726c-0.951,0-1.5,0.773-1.5,1.726V286h-32v-3.844
				c0-0.953-0.548-1.726-1.5-1.726s-1.5,0.773-1.5,1.726V286h-79.222c-0.953,0-1.727,1.548-1.727,2.5s0.773,2.5,1.727,2.5h150.687
				c0.951,0,1.727-1.548,1.727-2.5S431.416,286,430.465,286z"/>
			<path fill="#E8534F" d="M395.5,273.902c0.955,0,1.5-0.773,1.5-1.727v-5.994c0-0.954-0.545-1.728-1.5-1.728
				c-0.951,0-1.5,0.774-1.5,1.728v5.994C394,273.129,394.549,273.902,395.5,273.902z"/>
			<path fill="#E8534F" d="M395.5,243.73c-0.951,0-1.5,0.772-1.5,1.728v5.992c0,0.955,0.549,1.728,1.5,1.728
				c0.955,0,1.5-0.772,1.5-1.728v-5.992C397,244.502,396.455,243.73,395.5,243.73z"/>
			<path fill="#E8534F" d="M360.5,273.902c0.952,0,1.5-0.773,1.5-1.727v-5.994c0-0.954-0.548-1.728-1.5-1.728s-1.5,0.774-1.5,1.728
				v5.994C359,273.129,359.548,273.902,360.5,273.902z"/>
			<path fill="#E8534F" d="M360.5,243.73c-0.952,0-1.5,0.772-1.5,1.728v5.992c0,0.955,0.548,1.728,1.5,1.728s1.5-0.772,1.5-1.728
				v-5.992C362,244.502,361.452,243.73,360.5,243.73z"/>
		</g>
		<g>
			<g>
				<path fill="#E8534F" d="M412.153,210.215c-11.163,0-20.245-9.084-20.245-20.247c0-11.165,9.082-20.247,20.245-20.247
					c11.166,0,20.248,9.083,20.248,20.247C432.401,201.131,423.319,210.215,412.153,210.215z M412.153,173.321
					c-9.179,0-16.646,7.468-16.646,16.647c0,9.179,7.468,16.647,16.646,16.647c9.181,0,16.649-7.468,16.649-16.647
					C428.803,180.789,421.334,173.321,412.153,173.321z"/>
			</g>
			<g>
				<path fill="#E8534F" d="M408.269,195.411l0.036,1.589h-2.178l0.036-1.533c-0.758-0.071-1.602-0.46-2.162-0.678
					c0.092-0.629,0.253-1.823,0.45-2.326c0.756,0.287,2.396,0.402,3.24,0.402c0.864,0,1.207-0.159,1.207-0.842
					c0-1.513-4.985-0.628-4.985-4.193c0-1.494,1.241-2.507,2.953-2.868L406.828,184h2.178l-0.035,0.844
					c0.594,0.038,1.259,0.063,1.765,0.17c-0.02,0.54-0.126,1.579-0.271,2.173c-0.719-0.162-2.286-0.281-2.953-0.281
					c-0.882,0-1.206,0.138-1.206,0.75c0,1.367,4.986,0.871,4.986,4.363C411.292,193.677,410.014,195.07,408.269,195.411z"/>
				<path fill="#E8534F" d="M417.267,195.411l0.036,1.589h-2.179l0.035-1.533c-0.755-0.071-1.601-0.46-2.16-0.678
					c0.09-0.629,0.254-1.823,0.451-2.326c0.755,0.287,2.396,0.402,3.241,0.402c0.864,0,1.206-0.159,1.206-0.842
					c0-1.513-4.987-0.628-4.987-4.193c0-1.494,1.242-2.507,2.952-2.868L415.827,184h2.178l-0.037,0.844
					c0.597,0.038,1.262,0.063,1.765,0.17c-0.017,0.54-0.126,1.579-0.271,2.173c-0.72-0.162-2.285-0.281-2.952-0.281
					c-0.881,0-1.206,0.138-1.206,0.75c0,1.367,4.987,0.871,4.987,4.363C420.291,193.677,419.013,195.07,417.267,195.411z"/>
			</g>
		</g>
	</g>
	<path fill="none" d="M608.391,138.792c-0.009-0.236-0.102-0.905-0.404-1.431c-0.166-0.29-0.445-0.775-1.797-0.775h-21.588
		c-1.351,0-1.63,0.485-1.797,0.775c-0.303,0.525-0.392,1.194-0.405,1.431v1.079h25.991V138.792z"/>
	<g opacity="0.25">
		<g>
			<path fill="#0A0A0A" d="M493.718,207.592l-3.456-8.635l-3.453,8.635l-4.747,15.976v99.305v8.635v1.728v9.065v0.865v0.862
				c0,0,0,2.59,2.588,2.59c2.59,0,8.637,0,11.229,0c2.587,0,2.587-2.59,2.587-2.59v-0.862V342.3v-9.065v-1.728v-8.635v-99.305
				L493.718,207.592z M494.581,342.732h-8.637c-0.005-0.019,0-8.635,0-8.635h8.637V342.732z M494.581,329.78h-8.637v-4.317h8.637
				V329.78z M495.878,223.656c-0.09,0.003-0.176,0.005-0.264,0.005c-1.231,0-2.274-1.164-2.677-2.253
				c-0.402,1.089-1.445,2.592-2.676,2.592c-1.229,0-2.273-1.503-2.673-2.592c-0.403,1.089-1.447,2.253-2.677,2.253
				c-0.09,0-0.177-0.002-0.263-0.005l3.987-12.611h3.25L495.878,223.656z"/>
			<path fill="#0A0A0A" d="M224.515,170.527c-0.395,0-53.577,0-53.97,0c-6.046,0-6.046,6.044-6.046,6.044v124.347
				c0,0,0.433,6.045,6.046,6.045c0.377,0,53.593,0,53.97,0c5.614,0,6.045-6.045,6.045-6.045V176.571
				C230.56,176.571,230.56,170.527,224.515,170.527z M197.53,176.14c0.715,0,1.295,0.58,1.295,1.295c0,0.716-0.58,1.295-1.295,1.295
				c-0.718,0-1.298-0.58-1.298-1.295C196.232,176.72,196.812,176.14,197.53,176.14z M192.996,180.911v-0.022h8.636v0.022
				c0.07-0.012,0.141-0.022,0.214-0.022c0.719,0,1.297,0.581,1.297,1.295c0,0.714-0.578,1.296-1.297,1.296
				c-0.073,0-0.144-0.011-0.214-0.022v0.022h-8.636v-0.022c-0.612-0.103-1.08-0.632-1.08-1.273
				C191.916,181.543,192.384,181.013,192.996,180.911z M197.53,303.077c-3.34,0-6.046-2.706-6.046-6.043
				c0-3.339,2.706-6.045,6.046-6.045c3.339,0,6.045,2.706,6.045,6.045C203.575,300.371,200.869,303.077,197.53,303.077z
				 M226.241,287.102h-57.424v-97.146h57.424V287.102z"/>
			<path fill="#0A0A0A" d="M169.496,61.063l-10.364,4.317v22.883h45.337l10.361-4.316V61.063H169.496z M168.847,65.542v16.232
				l-0.688,0.444l-5.142,1.402V67.971L168.847,65.542z M172.733,81.355V64.949h38.211v16.406l0,0H172.733z"/>
			<g>
				<path fill="#0A0A0A" d="M254.842,96.55v26.336h155.003V96.55H254.842z M405.957,119h-6.691v-4.317h-3.886V119h-6.908v-8.203
					h-3.886V119h-6.907v-4.317h-3.886V119h-6.908v-8.203H363V119h-6.91v-4.317h-3.885V119h-6.909v-8.203h-3.886V119h-6.908v-4.317
					h-3.885V119h-6.908v-8.203h-3.887V119h-6.909v-4.317h-3.885V119h-6.908v-8.203h-3.886V119h-6.908v-4.317h-3.886V119h-6.908
					v-8.203h-3.886V119h-6.907v-4.317h-3.887V119h-7.123v-18.565h147.228V119z"/>
				<path fill="#0A0A0A" d="M397.322,110.797c1.671,0,3.023-1.354,3.023-3.023c0-1.669-1.353-3.022-3.023-3.022
					c-1.667,0-3.021,1.353-3.021,3.022C394.301,109.443,395.655,110.797,397.322,110.797z"/>
				<circle fill="#0A0A0A" cx="267.795" cy="107.775" r="3.023"/>
			</g>
			<path fill="#0A0A0A" d="M612.28,139.875v-1.128c0,0,0-6.044-6.091-6.044c-0.172,0-4.271,0-8.851,0v-3.006
				c3.896-2.043,12.306-7.83,12.306-19.773c0-6.012-2.132-8.284-4.746-8.814c3.027-5.066,5.609-11.263,5.609-17.686
				c0-6.574-2.701-8.726-5.822-9.021c0.908-3.187,1.504-6.66,1.504-10.303c0-15.544-10.793-25.906-10.793-25.906
				s-10.795,10.362-10.795,25.906c0,3.643,0.598,7.116,1.505,10.303c-3.117,0.296-5.822,2.448-5.822,9.021
				c0,6.423,2.584,12.62,5.61,17.686c-2.615,0.53-4.746,2.802-4.746,8.814c0,11.944,8.41,17.73,12.308,19.773v3.006
				c-4.582,0-8.68,0-8.854,0c-6.087,0-6.087,6.044-6.087,6.044v1.128c-5.825,0.048-7.944,4.791-7.944,7.985v19.861
				c0,0.046,0.003,0.094,0.005,0.138c0.194,2.715,2.122,7.849,8.026,7.849h33.589c5.905,0,7.833-5.133,8.026-7.849
				c0.006-0.044,0.006-0.092,0.006-0.138V147.86C620.223,144.666,618.104,139.922,612.28,139.875z M593.67,78.778
				c0-0.954,0.774-1.728,1.727-1.728c0.953,0,1.729,0.774,1.729,1.728v41.017c0,0.954-0.776,1.727-1.729,1.727
				c-0.952,0-1.727-0.773-1.727-1.727V78.778z M582.399,138.792c0.014-0.236,0.103-0.905,0.405-1.431
				c0.167-0.29,0.446-0.775,1.797-0.775h21.588c1.352,0,1.631,0.485,1.797,0.775c0.303,0.525,0.396,1.194,0.404,1.431v1.079h-25.991
				V138.792z M616.337,152.609h-41.881v-4.735c0.015-0.958,0.356-4.063,4.059-4.112c0.03,0,0.055-0.004,0.087-0.004h3.798h25.991
				h3.8c0.031,0,0.056,0.004,0.09,0.004c3.7,0.049,4.044,3.154,4.057,4.098V152.609z"/>
			<g>
				<path fill="#0A0A0A" d="M636.63,311.281c5.611,0,6.045-6.045,6.045-6.045v-97.578c0,0,0-6.044-6.045-6.044
					c-0.394,0-95.457,0-95.851,0c-6.044,0-6.044,6.044-6.044,6.044V328.12c0,0,0.432,6.045,6.044,6.045c0.376,0,95.472,0,95.851,0
					c5.611,0,6.045-6.045,6.045-6.045v-11.146c0,0-3.979,0-9.068,0v9.418h-91.964v-5.181h14.464c1.192,0,2.159-0.966,2.159-2.159
					c0-1.192-0.967-2.158-2.159-2.158h-14.464v-5.612C541.643,311.281,636.251,311.281,636.63,311.281z M562.364,227.087h52.679
					v25.906h-52.679V227.087z"/>
				<g>
					<path fill="#0A0A0A" d="M599.068,244.142c-0.499,0-0.996-0.19-1.375-0.569l-3.81-3.807l-3.806,3.807
						c-0.761,0.758-1.99,0.758-2.748,0l-3.804-3.807l-3.811,3.807c-0.76,0.758-1.991,0.758-2.748,0
						c-0.759-0.759-0.759-1.988,0-2.748l5.183-5.181c0.757-0.758,1.99-0.758,2.746,0l3.808,3.808l3.808-3.808
						c0.758-0.758,1.99-0.758,2.747,0l5.183,5.181c0.759,0.759,0.759,1.989,0,2.748
						C600.061,243.952,599.562,244.142,599.068,244.142z"/>
				</g>
			</g>
			<g>
				<g>
					<path fill="#0A0A0A" d="M508.03,149.515c-1.767,1.088-3.514,1.119-3.709,1.119c-0.194,0-1.946-0.031-3.713-1.119
						c-0.377-0.232-0.77-0.525-1.153-0.885c1.526,4.021,4.866,7.617,4.866,7.617s3.335-3.596,4.863-7.617
						C508.803,148.99,508.409,149.283,508.03,149.515z"/>
				</g>
				<path fill="#0A0A0A" d="M504.321,130.773c0,0-5.613,6.046-5.613,11.227c0,6.908,5.613,6.908,5.613,6.908s5.612,0,5.612-6.908
					C509.934,136.819,504.321,130.773,504.321,130.773z M504.321,145.886c-1.193,0-2.161-0.967-2.161-2.16
					c0-1.192,0.968-2.158,2.161-2.158c1.188,0,2.156,0.965,2.156,2.158C506.478,144.919,505.51,145.886,504.321,145.886z"/>
				<path fill="#0A0A0A" d="M525.897,142.432c-0.183-9.27-6.205-17.102-14.541-19.977c0.735-1.23,1.167-2.664,1.167-4.203
					c0-2.029-0.741-3.884-1.963-5.316c3.055-4.166,6.28-11.017,5.847-21.112c-0.98-22.878-15.576-38.856-35.494-38.856
					c-5.516,0-11.021,1.26-16.362,3.745c-6.576,3.057-10.991,8.363-12.77,15.188c-0.836-0.197-1.638-0.278-2.296-0.278
					c-1.188,0-2.146,0.959-2.152,2.146c-0.006,1.189,0.955,2.158,2.143,2.17c0.065,0,0.792,0.015,1.564,0.229
					c-0.012,0.122-0.031,0.24-0.043,0.362c-0.042,0.521-0.064,1.045-0.08,1.569c-0.557,0.036-1.152,0.042-1.706,0.004
					c-1.202-0.085-2.223,0.812-2.311,2c-0.084,1.188,0.812,2.222,2.002,2.305c0.271,0.021,0.688,0.042,1.2,0.042
					c0.305,0,0.643-0.008,0.998-0.028c1.073,9.519,6.449,18.771,14.438,24.227c11.057,7.551,22.939,10.273,30.597,11.247
					c-0.005,0.12-0.02,0.235-0.02,0.354c0,1.539,0.432,2.972,1.169,4.203c-8.335,2.875-14.359,10.708-14.541,19.977h-0.013v6.908
					c0,0,0.865,19.86,21.591,19.86c20.723,0,21.588-19.86,21.588-19.86v-6.908H525.897z M467.974,103.085
					c-7.148-4.881-11.898-13.238-12.652-21.746c0.273-0.162,0.527-0.343,0.754-0.554c0.763-0.711,1.184-1.665,1.184-2.685
					c0-1.786-0.619-3.113-1.538-4.085c1.283-6.058,4.989-10.753,10.65-13.387c4.769-2.218,9.661-3.343,14.542-3.343
					c17.483,0,30.305,14.279,31.181,34.723c0.386,9.022-2.492,14.994-5.091,18.5c-0.841-0.292-1.742-0.458-2.682-0.458
					c-2.855,0-5.367,1.459-6.837,3.67C490.369,112.905,478.75,110.445,467.974,103.085z M500.437,118.316
					c1.517,0.098,2.646,0.118,3.283,0.118c0.44,0,0.676-0.008,0.676-0.008c0.396-0.015,0.786-0.139,1.12-0.36
					c0.123-0.081,0.972-0.664,2.146-1.793c0.344,0.581,0.542,1.258,0.542,1.979c0,1.292-0.63,2.438-1.602,3.144
					c-0.753-0.078-1.512-0.122-2.281-0.122c-0.771,0-1.533,0.044-2.281,0.122C501.084,120.702,500.456,119.582,500.437,118.316z
					 M504.321,159.27c-8.166,0-14.956-5.997-16.201-13.815h1.52c0.954,0,1.726-0.773,1.726-1.728c0-0.953-0.771-1.727-1.726-1.727
					h-1.702c0.093-1.779,0.474-3.483,1.088-5.07c0.003,0,0.003-0.002,0.004-0.003c0.094-0.243,0.194-0.483,0.3-0.72
					c0.002-0.003,0.005-0.007,0.005-0.011c0.106-0.234,0.214-0.465,0.331-0.694c0.001-0.006,0.007-0.014,0.009-0.021
					c0.114-0.224,0.232-0.446,0.355-0.664c0.008-0.011,0.015-0.021,0.019-0.032c0.12-0.214,0.248-0.426,0.379-0.633
					c0.009-0.016,0.019-0.03,0.029-0.046c0.127-0.202,0.261-0.403,0.397-0.598c0.014-0.021,0.027-0.039,0.04-0.059
					c0.137-0.191,0.273-0.38,0.417-0.566c0.017-0.023,0.034-0.046,0.054-0.069c0.141-0.18,0.281-0.356,0.432-0.531
					c0.022-0.028,0.046-0.055,0.069-0.083c0.144-0.168,0.289-0.333,0.442-0.495c0.028-0.032,0.058-0.062,0.087-0.094
					c0.146-0.154,0.298-0.309,0.45-0.458c0.035-0.036,0.073-0.069,0.108-0.105c0.149-0.144,0.301-0.285,0.456-0.423
					c0.043-0.039,0.086-0.075,0.131-0.113c0.15-0.132,0.301-0.263,0.456-0.388c0.05-0.042,0.105-0.082,0.156-0.122
					c0.148-0.121,0.301-0.238,0.455-0.353c0.061-0.043,0.123-0.084,0.183-0.128c0.146-0.108,0.3-0.214,0.454-0.317
					c0.067-0.045,0.138-0.089,0.206-0.134c0.15-0.095,0.299-0.191,0.452-0.284c0.076-0.046,0.156-0.089,0.232-0.134
					c0.147-0.085,0.296-0.17,0.444-0.251c0.086-0.046,0.175-0.088,0.265-0.134c0.143-0.074,0.289-0.149,0.436-0.22
					c0.096-0.045,0.192-0.087,0.288-0.131c0.143-0.064,0.285-0.132,0.43-0.191c0.104-0.043,0.214-0.084,0.318-0.126
					c0.137-0.054,0.276-0.111,0.417-0.162c0.117-0.042,0.231-0.079,0.349-0.117c0.134-0.045,0.27-0.094,0.405-0.136
					c0.125-0.038,0.249-0.071,0.374-0.106c0.133-0.038,0.265-0.078,0.399-0.111c0.13-0.034,0.264-0.062,0.396-0.093
					c0.13-0.03,0.259-0.062,0.389-0.089c0.142-0.029,0.285-0.051,0.429-0.077c0.125-0.021,0.247-0.046,0.372-0.066
					c0.153-0.022,0.308-0.04,0.464-0.058c0.093-0.011,0.189-0.024,0.284-0.037v1.205c0,0.954,0.774,1.726,1.728,1.726
					s1.726-0.772,1.726-1.726v-1.205c0.095,0.012,0.189,0.025,0.284,0.037c0.154,0.019,0.312,0.036,0.464,0.058
					c0.125,0.02,0.248,0.044,0.371,0.067c0.145,0.024,0.287,0.047,0.428,0.076c0.134,0.027,0.263,0.059,0.39,0.089
					c0.134,0.03,0.268,0.059,0.397,0.093c0.134,0.033,0.267,0.073,0.397,0.111c0.125,0.035,0.25,0.068,0.374,0.106
					c0.136,0.042,0.271,0.091,0.406,0.136c0.116,0.038,0.233,0.075,0.348,0.117c0.142,0.051,0.281,0.108,0.419,0.162
					c0.105,0.042,0.213,0.083,0.316,0.126c0.146,0.06,0.288,0.127,0.432,0.191c0.096,0.044,0.193,0.085,0.287,0.131
					c0.146,0.07,0.293,0.146,0.438,0.22c0.088,0.045,0.175,0.088,0.261,0.134c0.151,0.082,0.298,0.167,0.444,0.251
					c0.079,0.045,0.157,0.088,0.236,0.134c0.15,0.092,0.302,0.188,0.448,0.286c0.07,0.043,0.14,0.087,0.208,0.132
					c0.152,0.103,0.306,0.209,0.455,0.317c0.061,0.044,0.121,0.084,0.18,0.128c0.155,0.115,0.307,0.232,0.458,0.353
					c0.05,0.041,0.103,0.08,0.155,0.122c0.153,0.125,0.306,0.256,0.456,0.388c0.043,0.038,0.09,0.074,0.134,0.113
					c0.153,0.138,0.304,0.279,0.453,0.423c0.033,0.036,0.071,0.069,0.109,0.105c0.154,0.15,0.302,0.304,0.447,0.458
					c0.031,0.032,0.06,0.062,0.091,0.094c0.148,0.162,0.295,0.327,0.438,0.495c0.025,0.028,0.049,0.055,0.073,0.083
					c0.147,0.174,0.288,0.351,0.43,0.531c0.019,0.022,0.035,0.046,0.055,0.069c0.143,0.186,0.279,0.375,0.415,0.568
					c0.014,0.019,0.025,0.037,0.04,0.056c0.137,0.197,0.27,0.398,0.397,0.6c0.009,0.016,0.02,0.03,0.029,0.045
					c0.131,0.208,0.258,0.419,0.379,0.634c0.007,0.01,0.012,0.021,0.019,0.032c0.123,0.218,0.24,0.44,0.354,0.664
					c0.005,0.007,0.009,0.015,0.012,0.021c0.116,0.229,0.226,0.459,0.332,0.694c0,0.004,0.002,0.008,0.003,0.011
					c0.106,0.237,0.204,0.477,0.301,0.72c0,0,0.001,0.002,0.001,0.003c0.619,1.587,0.996,3.292,1.09,5.07H519
					c-0.954,0-1.728,0.773-1.728,1.727c0,0.955,0.773,1.728,1.728,1.728h1.52C519.274,153.273,512.485,159.27,504.321,159.27z"/>
			</g>
			<g>
				<g>
					<path fill="#0A0A0A" d="M112.041,261.196c-0.441,0-0.884-0.167-1.221-0.505l-3.962-3.96l-3.958,3.96
						c-0.675,0.673-1.769,0.673-2.443,0l-3.96-3.96l-3.959,3.96c-0.675,0.673-1.768,0.673-2.441,0l-3.96-3.96l-3.962,3.96
						c-0.675,0.673-1.768,0.673-2.442,0c-0.675-0.675-0.675-1.769,0-2.443l5.18-5.182c0.676-0.672,1.771-0.672,2.443,0l3.959,3.961
						l3.962-3.961c0.675-0.672,1.768-0.672,2.442,0l3.959,3.961l3.96-3.961c0.676-0.672,1.769-0.672,2.443,0l5.181,5.182
						c0.675,0.675,0.675,1.768,0,2.443C112.926,261.029,112.483,261.196,112.041,261.196z"/>
				</g>
				<g>
					<g>
						<path fill="#0A0A0A" d="M123.699,169.231c-0.443,0-0.886-0.169-1.223-0.505l-3.959-3.961l-3.959,3.961
							c-0.677,0.674-1.77,0.674-2.443,0l-3.96-3.961l-3.96,3.961c-0.674,0.674-1.768,0.674-2.442,0l-3.96-3.961l-3.959,3.961
							c-0.675,0.674-1.769,0.674-2.443,0l-3.961-3.961l-3.959,3.961c-0.675,0.674-1.77,0.674-2.443,0
							c-0.675-0.675-0.675-1.769,0-2.443l5.183-5.181c0.675-0.674,1.768-0.674,2.442,0l3.959,3.96l3.96-3.96
							c0.675-0.674,1.769-0.674,2.442,0l3.96,3.96l3.96-3.96c0.674-0.674,1.768-0.674,2.441,0l3.961,3.96l3.959-3.96
							c0.675-0.674,1.768-0.674,2.444,0l5.18,5.181c0.674,0.674,0.674,1.768,0,2.443
							C124.582,169.062,124.141,169.231,123.699,169.231z"/>
					</g>
				</g>
				<g>
					<path fill="#0A0A0A" d="M133.629,200.751c-0.443,0-0.885-0.17-1.223-0.507l-3.959-3.96l-3.958,3.96
						c-0.675,0.675-1.769,0.675-2.444,0l-3.959-3.96l-3.959,3.96c-0.676,0.675-1.77,0.675-2.445,0c-0.674-0.674-0.674-1.768,0-2.443
						l5.183-5.181c0.673-0.674,1.769-0.674,2.442,0l3.959,3.961l3.96-3.961c0.675-0.674,1.77-0.674,2.443,0l5.182,5.181
						c0.674,0.675,0.674,1.769,0,2.443C134.513,200.581,134.071,200.751,133.629,200.751z"/>
				</g>
				<g>
					<g>
						<rect x="77.5" y="177.003" fill="#0A0A0A" width="79.443" height="4.318"/>
					</g>
					<g>
						<rect x="77.5" y="207.227" fill="#0A0A0A" width="79.443" height="4.317"/>
					</g>
					<g>
						<rect x="77.5" y="237.449" fill="#0A0A0A" width="79.443" height="4.32"/>
					</g>
					<g>
						<rect x="77.5" y="267.673" fill="#0A0A0A" width="79.443" height="4.318"/>
					</g>
					<g>
						<rect x="77.5" y="297.896" fill="#0A0A0A" width="79.443" height="4.318"/>
					</g>
				</g>
				<path fill="#0A0A0A" d="M182.419,164.482v-43.176c0,0,0-6.044-6.046-6.044c-0.049,0-108.323,0-108.372,0
					c-6.043,0-6.043,6.044-6.043,6.044v205.95c0,0,0.43,6.045,6.043,6.045c0.048,0,108.326,0,108.372,0
					c5.613,0,6.046-6.045,6.046-6.045v-14.248h-6.91v12.521H68.865V147.644h106.644v16.838H182.419z"/>
			</g>
		</g>
	</g>
</g>
<g>
	<g opacity="0.15">
		<g>
			<path d="M214.559,494.911c-1.1,0-2-0.9-2-2V442.99c0-1.1,0.9-2,2-2h7.84c1.1,0,2,0.9,2,2v49.921c0,1.1-0.9,2-2,2H214.559z"/>
			<path d="M222.398,495.411h-7.84c-1.379,0-2.5-1.122-2.5-2.5V442.99c0-1.378,1.121-2.5,2.5-2.5h7.84c1.379,0,2.5,1.122,2.5,2.5
				v49.921C224.898,494.29,223.777,495.411,222.398,495.411z M214.559,441.49c-0.827,0-1.5,0.673-1.5,1.5v49.921
				c0,0.827,0.673,1.5,1.5,1.5h7.84c0.827,0,1.5-0.673,1.5-1.5V442.99c0-0.827-0.673-1.5-1.5-1.5H214.559z"/>
		</g>
		<g>
			<path d="M263.438,494.911c-1.1,0-2-0.9-2-2V468.59c0-1.1-0.204-2.876-0.454-3.948c0,0-0.665-2.852-5.226-2.852
				c-2.561,0-5.04,0.72-7.28,2.16v28.961c0,1.1-0.9,2-2,2h-6.8c-1.1,0-2-0.9-2-2V455.55c0-1.1,0.896-2.078,1.992-2.173
				c0,0,5.367-0.467,8.808-0.467v2.16c0,1.1,0.126,2,0.28,2c0.153,0,1.039-0.482,1.968-1.071c0,0,5.753-3.649,9.272-3.649
				c6.561,0,12.24,3.44,12.24,13.041v27.521c0,1.1-0.9,2-2,2H263.438z"/>
			<path d="M270.238,495.411h-6.801c-1.379,0-2.5-1.122-2.5-2.5V468.59c0-1.054-0.202-2.81-0.441-3.834
				c-0.024-0.097-0.667-2.466-4.738-2.466c-2.415,0-4.694,0.651-6.78,1.936v28.685c0,1.378-1.121,2.5-2.5,2.5h-6.8
				c-1.379,0-2.5-1.122-2.5-2.5V455.55c0-1.355,1.099-2.554,2.449-2.671c0.054-0.005,5.428-0.469,8.851-0.469h0.5v2.66
				c0,0.603,0.037,1.052,0.077,1.34c0.306-0.169,0.816-0.461,1.403-0.833c0.239-0.152,5.917-3.727,9.54-3.727
				c8.097,0,12.74,4.936,12.74,13.541v27.521C272.738,494.29,271.617,495.411,270.238,495.411z M255.758,461.291
				c4.901,0,5.682,3.106,5.713,3.238c0.257,1.104,0.467,2.926,0.467,4.062v24.321c0,0.827,0.673,1.5,1.5,1.5h6.801
				c0.827,0,1.5-0.673,1.5-1.5v-27.521c0-10.911-7.355-12.541-11.74-12.541c-3.333,0-8.948,3.536-9.005,3.571
				c-0.826,0.524-1.884,1.149-2.235,1.149c-0.311,0-0.78,0-0.78-2.5v-1.657c-3.379,0.041-8.214,0.458-8.265,0.462
				c-0.832,0.072-1.535,0.839-1.535,1.675v37.361c0,0.827,0.673,1.5,1.5,1.5h6.8c0.827,0,1.5-0.673,1.5-1.5v-29.234l0.229-0.147
				C250.519,462.044,253.059,461.291,255.758,461.291z"/>
		</g>
		<g>
			<path d="M304.398,494.911h-9.681c-1.1,0-2.305-0.847-2.678-1.882c0,0-9.003-24.999-12.522-39.479c3.04-0.4,7.52-0.64,10.88-0.64
				l6.872,23.203c0.312,1.055,0.792,2.789,1.064,3.855c0,0,0.304,1.183,0.464,3.183l0,0c0.308,0,0.708-0.888,0.889-1.973
				c0,0,0.312-1.868,0.712-3.308l6.72-23.041c0.308-1.056,1.459-1.9,2.56-1.876c0,0,5.28,0.116,8.24,0.596
				C314.318,467.951,309.918,480.751,304.398,494.911z"/>
			<path d="M304.74,495.411h-10.022c-1.318,0-2.701-0.972-3.148-2.212c-0.09-0.25-9.052-25.19-12.538-39.53l-0.131-0.541
				l0.552-0.073c2.885-0.379,7.386-0.645,10.945-0.645h0.373l6.979,23.561c0.319,1.077,0.799,2.814,1.069,3.873
				c0.009,0.034,0.156,0.615,0.3,1.636c0.027-0.12,0.053-0.249,0.075-0.384c0.013-0.078,0.32-1.911,0.724-3.359l6.721-23.047
				c0.366-1.254,1.681-2.236,2.993-2.236c0.274,0.005,5.407,0.123,8.367,0.603l0.537,0.087l-0.132,0.527
				c-3.267,13.068-7.315,25.456-13.539,41.421L304.74,495.411z M280.137,453.977c3.563,14.367,12.285,38.636,12.374,38.883
				c0.303,0.841,1.313,1.551,2.207,1.551h9.339c6.053-15.554,10.031-27.704,13.242-40.447c-2.956-0.403-7.583-0.509-7.632-0.51
				h-0.001c-0.897,0-1.828,0.694-2.067,1.516l-6.72,23.041c-0.388,1.392-0.696,3.231-0.699,3.25
				c-0.094,0.561-0.469,2.391-1.382,2.391h-0.462l-0.036-0.46c-0.154-1.926-0.447-3.087-0.45-3.099
				c-0.269-1.049-0.743-2.771-1.06-3.837l-6.766-22.844C286.792,453.427,282.877,453.652,280.137,453.977z"/>
		</g>
		<g>
			<path d="M341.838,495.711c-11.2,0-18.961-6.72-18.961-21.68c0-13.521,8-21.681,19.201-21.681c10.8,0,19.04,6.24,19.04,21.681
				C361.118,488.031,352.639,495.711,341.838,495.711z M341.998,461.47c-4.881,0-7.44,3.6-7.44,12.561c0,9.04,2.08,12.56,7.28,12.56
				c5.12,0,7.76-3.44,7.76-12.56C349.598,465.15,347.037,461.47,341.998,461.47z"/>
			<path d="M341.838,496.211c-12.368,0-19.461-8.084-19.461-22.18c0-13.267,7.917-22.181,19.701-22.181
				c12.418,0,19.54,8.084,19.54,22.181C361.618,487.297,353.669,496.211,341.838,496.211z M342.078,452.85
				c-11.36,0-18.701,8.314-18.701,21.181c0,13.658,6.557,21.18,18.461,21.18c11.408,0,18.78-8.313,18.78-21.18
				C360.618,460.372,354.034,452.85,342.078,452.85z M341.838,487.091c-5.526,0-7.78-3.784-7.78-13.06
				c0-8.911,2.523-13.061,7.94-13.061c5.526,0,8.1,4.15,8.1,13.061C350.098,483.063,347.55,487.091,341.838,487.091z
				 M341.998,461.97c-4.8,0-6.94,3.72-6.94,12.061c0,10.009,2.711,12.06,6.78,12.06c5.089,0,7.26-3.607,7.26-12.06
				C349.098,465.69,346.908,461.97,341.998,461.97z"/>
		</g>
		<g>
			<path d="M376.638,448.51c-4.001,0-6.001-2.96-6.001-6.16c0-3.2,1.92-6.32,6.08-6.32c4.08,0,6.001,3.04,6.001,6.32
				C382.718,445.63,380.718,448.51,376.638,448.51z M373.277,494.911c-1.1,0-2-0.9-2-2V455.15c0-1.1,0.9-2,2-2h6.8c1.1,0,2,0.9,2,2
				v37.761c0,1.1-0.9,2-2,2H373.277z"/>
			<path d="M380.077,495.411h-6.8c-1.379,0-2.5-1.122-2.5-2.5V455.15c0-1.378,1.121-2.5,2.5-2.5h6.8c1.379,0,2.5,1.122,2.5,2.5
				v37.761C382.577,494.29,381.456,495.411,380.077,495.411z M373.277,453.65c-0.827,0-1.5,0.673-1.5,1.5v37.761
				c0,0.827,0.673,1.5,1.5,1.5h6.8c0.827,0,1.5-0.673,1.5-1.5V455.15c0-0.827-0.673-1.5-1.5-1.5H373.277z M376.638,449.01
				c-4.467,0-6.501-3.453-6.501-6.66c0-3.395,2.034-6.82,6.58-6.82c4.491,0,6.501,3.425,6.501,6.82
				C383.218,445.665,381.184,449.01,376.638,449.01z M376.717,436.53c-3.854,0-5.58,2.923-5.58,5.82c0,2.817,1.701,5.66,5.501,5.66
				c4.119,0,5.58-3.049,5.58-5.66C382.218,439.665,380.777,436.53,376.717,436.53z"/>
		</g>
		<g>
			<path d="M405.437,495.711c-4.72,0-9.92-1.2-13.36-3.04c0.801-3.6,1.44-6.32,2.48-9.68c3.28,1.76,8.641,2.96,12.641,2.96
				c2.72,0,3.76-1.28,3.76-3.36c0-5.68-18.48-1.76-18.48-16.32c0-9.52,8.48-13.92,17.681-13.92c2.8,0,7.12,0.4,10.4,1.28
				c-0.16,2.96-0.721,6.4-1.44,9.6c-2.96-0.88-8.08-1.6-11.521-1.6c-2.64,0-3.84,1.2-3.84,3.36c0,5.76,18.4,1.6,18.4,17.281
				C422.157,491.711,413.837,495.711,405.437,495.711z"/>
			<path d="M405.437,496.211c-4.74,0-10.076-1.216-13.597-3.099l-0.334-0.179l0.082-0.37c0.749-3.367,1.408-6.22,2.491-9.72
				l0.18-0.58l0.534,0.287c3.133,1.681,8.35,2.901,12.404,2.901c2.255,0,3.26-0.882,3.26-2.86c0-1.717-2.177-2.414-5.729-3.409
				c-5.381-1.506-12.751-3.57-12.751-12.912c0-10.644,9.794-14.42,18.181-14.42c2.835,0,7.19,0.401,10.53,1.297l0.392,0.105
				l-0.022,0.405c-0.189,3.512-0.895,7.204-1.451,9.683l-0.118,0.522l-0.513-0.152c-2.93-0.871-8.033-1.58-11.378-1.58
				c-2.278,0-3.34,0.909-3.34,2.86c0,1.711,2.099,2.408,5.522,3.402c5.435,1.578,12.878,3.74,12.878,13.878
				C422.657,492.56,413.381,496.211,405.437,496.211z M392.647,492.405c3.384,1.711,8.351,2.806,12.789,2.806
				c7.482,0,16.221-3.389,16.221-12.94c0-9.388-6.74-11.345-12.156-12.918c-3.351-0.973-6.244-1.813-6.244-4.363
				c0-1.761,0.753-3.86,4.34-3.86c3.293,0,8.054,0.637,11.146,1.475c0.675-3.099,1.128-6.115,1.291-8.594
				c-3.194-0.801-7.218-1.161-9.877-1.161c-7.926,0-17.181,3.515-17.181,13.42c0,8.583,6.665,10.449,12.021,11.949
				c3.467,0.971,6.46,1.809,6.46,4.372c0,1.761-0.739,3.86-4.26,3.86c-3.977,0-9.042-1.138-12.337-2.744
				C393.928,486.79,393.317,489.404,392.647,492.405z"/>
		</g>
		<g>
			<path d="M442.316,495.711c-4.72,0-9.92-1.2-13.36-3.04c0.801-3.6,1.44-6.32,2.48-9.68c3.28,1.76,8.641,2.96,12.641,2.96
				c2.72,0,3.76-1.28,3.76-3.36c0-5.68-18.48-1.76-18.48-16.32c0-9.52,8.48-13.92,17.681-13.92c2.8,0,7.12,0.4,10.4,1.28
				c-0.16,2.96-0.721,6.4-1.44,9.6c-2.96-0.88-8.08-1.6-11.521-1.6c-2.64,0-3.84,1.2-3.84,3.36c0,5.76,18.4,1.6,18.4,17.281
				C459.037,491.711,450.717,495.711,442.316,495.711z"/>
			<path d="M442.316,496.211c-4.74,0-10.076-1.216-13.597-3.099l-0.334-0.179l0.082-0.37c0.749-3.366,1.408-6.22,2.491-9.72
				l0.18-0.58l0.534,0.287c3.133,1.681,8.35,2.901,12.404,2.901c2.255,0,3.26-0.882,3.26-2.86c0-1.717-2.177-2.414-5.729-3.409
				c-5.381-1.506-12.751-3.57-12.751-12.912c0-10.644,9.794-14.42,18.181-14.42c2.835,0,7.19,0.401,10.53,1.297l0.392,0.105
				l-0.022,0.405c-0.189,3.512-0.895,7.204-1.451,9.683l-0.118,0.522l-0.513-0.152c-2.93-0.871-8.033-1.58-11.378-1.58
				c-2.278,0-3.34,0.909-3.34,2.86c0,1.711,2.099,2.408,5.522,3.402c5.435,1.578,12.878,3.74,12.878,13.878
				C459.537,492.56,450.261,496.211,442.316,496.211z M429.527,492.405c3.384,1.711,8.351,2.806,12.789,2.806
				c7.482,0,16.221-3.389,16.221-12.94c0-9.388-6.74-11.345-12.156-12.918c-3.351-0.973-6.244-1.813-6.244-4.363
				c0-1.761,0.753-3.86,4.34-3.86c3.293,0,8.054,0.637,11.146,1.475c0.675-3.099,1.128-6.115,1.291-8.594
				c-3.194-0.801-7.218-1.161-9.877-1.161c-7.926,0-17.181,3.515-17.181,13.42c0,8.583,6.665,10.449,12.021,11.949
				c3.467,0.971,6.46,1.809,6.46,4.372c0,1.761-0.739,3.86-4.26,3.86c-3.977,0-9.042-1.138-12.337-2.744
				C430.808,486.79,430.197,489.405,429.527,492.405z"/>
		</g>
		<g>
			<path d="M500.637,477.151h-20.8c-1.1,0-2,0.18-2,0.4s0.212,1.274,0.471,2.344c0,0,1.369,5.656,8.489,5.656
				c3.68,0,8.721-1.12,11.28-2.56c0.96,2.8,1.84,6.8,2.32,10.16c-3.681,1.68-10.001,2.56-13.761,2.56
				c-13.2,0-20.641-7.2-20.641-21.12c0-14.721,7.681-22.241,18.4-22.241c11.681,0,16.561,7.44,16.561,18.561
				C500.957,472.67,500.877,475.23,500.637,477.151z M490.077,467.871c0-4.96-1.76-7.44-5.84-7.44c-4.081,0-6.32,2.96-6.32,9.68
				h12.08C490.077,469.63,490.077,468.271,490.077,467.871z"/>
			<path d="M486.637,496.211c-13.633,0-21.141-7.678-21.141-21.62c0-14.027,7.242-22.741,18.9-22.741
				c11.161,0,17.061,6.591,17.061,19.061c0,0.871-0.023,3.897-0.324,6.302l-0.055,0.438h-21.241c-0.722,0-1.216,0.077-1.468,0.142
				c0.063,0.378,0.215,1.119,0.425,1.984c0.053,0.214,1.382,5.274,8.003,5.274c3.639,0,8.589-1.12,11.035-2.496l0.523-0.294
				l0.194,0.568c0.928,2.705,1.825,6.633,2.343,10.251l0.053,0.37l-0.34,0.156C497.033,495.236,490.697,496.211,486.637,496.211z
				 M484.396,452.85c-11.209,0-17.9,8.127-17.9,21.741c0,13.49,6.965,20.62,20.141,20.62c3.826,0,9.71-0.881,13.211-2.364
				c-0.475-3.169-1.259-6.645-2.06-9.14c-2.729,1.335-7.392,2.344-10.991,2.344c-7.428,0-8.961-5.978-8.976-6.039
				c-0.194-0.805-0.484-2.125-0.484-2.461c0-0.223,0-0.9,2.5-0.9h20.354c0.194-1.812,0.266-4.111,0.266-5.74
				C500.457,462.671,497.671,452.85,484.396,452.85z M490.421,470.61h-13.004v-0.5c0-6.755,2.295-10.18,6.82-10.18
				c4.266,0,6.34,2.597,6.34,7.94c0,1.212-0.028,1.972-0.087,2.322L490.421,470.61z M478.421,469.61h11.122
				c0.02-0.333,0.034-0.871,0.034-1.74c0-4.8-1.646-6.94-5.34-6.94C480.428,460.93,478.522,463.771,478.421,469.61z"/>
		</g>
	</g>
	<path fill="#FFFFFF" d="M222,438.5c0-1.381-1.119-2.5-2.5-2.5h-8c-1.381,0-2.5,1.119-2.5,2.5v50c0,1.381,1.119,2.5,2.5,2.5h8
		c1.381,0,2.5-1.119,2.5-2.5V438.5z"/>
	<path fill="#FFFFFF" d="M257.129,447.85c-3.623,0-9.366,3.575-9.605,3.727c-0.587,0.373-1.119,0.665-1.425,0.833
		c-0.04-0.288-0.099-0.737-0.099-1.34V448h-0.522c-3.423,0-8.886,0.669-8.939,0.674c-1.351,0.117-2.538,1.521-2.538,2.876v37.361
		c0,1.378,1.299,2.089,2.678,2.089h6.8c1.379,0,2.522-0.71,2.522-2.089v-28.685c2-1.285,4.354-1.936,6.77-1.936
		c4.07,0,4.739,2.369,4.764,2.466c0.239,1.024,0.467,2.78,0.467,3.834v24.321c0,1.378,1.059,2.089,2.438,2.089h6.801
		c1.379,0,2.762-0.71,2.762-2.089v-27.521C270,452.786,265.226,447.85,257.129,447.85z"/>
	<path fill="#FFFFFF" d="M306.631,448.454c-1.312,0-2.627,0.982-2.993,2.236l-6.721,23.047c-0.403,1.449-0.711,3.282-0.724,3.359
		c-0.022,0.136-0.048,0.264-0.075,0.384c-0.144-1.021-0.291-1.602-0.3-1.636c-0.271-1.059-0.75-3.001-1.069-4.078L287.771,448
		h-0.373c-3.56,0-8.061,0.47-10.945,0.85l-0.552,0.175l0.131,0.592c3.486,14.34,12.448,39.1,12.538,39.351
		c0.447,1.24,1.83,2.032,3.148,2.032h10.022l0.124-0.113c6.224-15.965,10.272-28.25,13.539-41.319l0.132-0.476l-0.537-0.062
		C312.038,448.551,306.905,448.459,306.631,448.454z"/>
	<path fill="#FFFFFF" d="M339.078,447.85c-11.784,0-19.701,8.914-19.701,22.181c0,14.096,7.093,22.18,19.461,22.18
		c11.831,0,19.78-8.914,19.78-22.18C358.618,455.935,351.496,447.85,339.078,447.85z M338.838,482.091
		c-4.069,0-6.78-2.051-6.78-12.06c0-8.341,2.141-12.061,6.94-12.061c4.91,0,7.1,3.72,7.1,12.061
		C346.098,478.484,343.927,482.091,338.838,482.091z"/>
	<path fill="#FFFFFF" d="M380,451.5c0-1.381-1.119-2.5-2.5-2.5h-7c-1.381,0-2.5,1.119-2.5,2.5v38c0,1.381,1.119,2.5,2.5,2.5h7
		c1.381,0,2.5-1.119,2.5-2.5V451.5z"/>
	<path fill="#FFFFFF" d="M373.717,431.53c-4.546,0-6.58,3.425-6.58,6.82c0,3.208,2.034,6.66,6.501,6.66
		c4.546,0,6.58-3.345,6.58-6.66C380.218,434.955,378.208,431.53,373.717,431.53z"/>
	<path fill="#FFFFFF" d="M406.779,464.393c-3.424-0.995-5.522-1.691-5.522-3.402c0-1.951,1.062-2.86,3.34-2.86
		c3.345,0,8.448,0.708,11.378,1.58l0.513,0.152l0.118-0.522c0.557-2.479,1.262-6.171,1.451-9.683l0.022-0.405l-0.392-0.105
		c-3.34-0.896-7.695-1.297-10.53-1.297c-8.387,0-18.181,3.777-18.181,14.42c0,9.342,7.37,11.405,12.751,12.912
		c3.553,0.995,5.729,1.691,5.729,3.409c0,1.978-1.005,2.86-3.26,2.86c-4.055,0-9.271-1.22-12.404-2.901l-0.534-0.287l-0.18,0.58
		c-1.083,3.5-1.742,6.353-2.491,9.72l-0.082,0.37l0.334,0.179c3.521,1.883,8.856,3.099,13.597,3.099
		c7.944,0,17.221-3.651,17.221-13.94C419.657,468.132,412.214,465.971,406.779,464.393z"/>
	<path fill="#FFFFFF" d="M443.659,464.393c-3.424-0.995-5.522-1.691-5.522-3.402c0-1.951,1.062-2.86,3.34-2.86
		c3.345,0,8.448,0.708,11.378,1.58l0.513,0.152l0.118-0.522c0.557-2.479,1.262-6.171,1.451-9.683l0.022-0.405l-0.392-0.105
		c-3.34-0.896-7.695-1.297-10.53-1.297c-8.387,0-18.181,3.777-18.181,14.42c0,9.342,7.37,11.405,12.751,12.912
		c3.553,0.995,5.729,1.691,5.729,3.409c0,1.978-1.005,2.86-3.26,2.86c-4.055,0-9.271-1.22-12.404-2.901l-0.534-0.287l-0.18,0.58
		c-1.083,3.5-1.742,6.354-2.491,9.72l-0.082,0.37l0.334,0.179c3.521,1.883,8.856,3.099,13.597,3.099
		c7.944,0,17.221-3.651,17.221-13.94C456.537,468.132,449.094,465.971,443.659,464.393z"/>
	<path fill="#FFFFFF" d="M481.396,447.85c-11.658,0-18.9,8.714-18.9,22.741c0,13.942,7.508,21.62,21.141,21.62
		c4.061,0,10.396-0.975,13.969-2.605l0.34-0.156l-0.053-0.37c-0.518-3.618-1.415-7.546-2.343-10.251l-0.194-0.568l-0.523,0.294
		c-2.446,1.376-7.396,2.496-11.035,2.496c-6.621,0-7.95-5.06-8.003-5.274c-0.21-0.865-0.361-1.431-0.425-1.809
		c0.252-0.065,0.746,0.032,1.468,0.032h21.241l0.055-0.612c0.301-2.405,0.324-5.519,0.324-6.39
		C498.457,454.528,492.558,447.85,481.396,447.85z M481.237,457.125c3.693,0,5.34,2.238,5.34,7.038c0,0.868-0.015,0.837-0.034,1.837
		h-11.122C475.522,460,477.428,457.125,481.237,457.125z"/>
</g>
</svg>
