<?xml version="1.0" encoding="utf-8"?>
<!-- Generator: Adobe Illustrator 15.0.0, SVG Export Plug-In . SVG Version: 6.00 Build 0)  -->
<!DOCTYPE svg PUBLIC "-//W3C//DTD SVG 1.1//EN" "http://www.w3.org/Graphics/SVG/1.1/DTD/svg11.dtd">
<svg version="1.1" id="Layer_1" xmlns="http://www.w3.org/2000/svg" xmlns:xlink="http://www.w3.org/1999/xlink" x="0px" y="0px"
	 width="545px" height="335px" viewBox="0 0 545 335" enable-background="new 0 0 545 335" xml:space="preserve">
<rect x="89.643" y="28.745" fill="#333333" width="361" height="13"/>
<rect x="89.643" y="41.745" fill="#C14848" width="361" height="223"/>
<g>
	<g>
		<g opacity="0.05">
			<path fill="#070707" d="M415.643,230.745c0,2.761-2.239,5-5,5h-276c-2.761,0-5-2.239-5-5v-147c0-2.761,2.239-5,5-5h276
				c2.761,0,5,2.239,5,5V230.745z"/>
		</g>
		<g>
			<g>
				<path fill="#E5E1D6" d="M130.643,123.745V230.5c0,2.2,2.157,4.245,4.357,4.245h276c2.2,0,3.643-2.045,3.643-4.245V123.745"/>
			</g>
		</g>
		<g>
			<path fill="#DD4B4B" d="M130.643,123.745V84c0-2.2,2.157-4.255,4.357-4.255h276c2.2,0,3.643,2.055,3.643,4.255v39.745"/>
		</g>
		<g opacity="0.8">
			<path fill="#FFFFFF" d="M245.516,108.745V98.636h2.67v10.109H245.516z"/>
			<path fill="#FFFFFF" d="M254.591,108.745v-5.1c0-0.48-0.15-0.69-0.765-0.69c-0.33,0-0.735,0.09-1.064,0.27v5.52h-2.476v-7.725
				c0.705-0.09,1.68-0.15,2.476-0.15v0.78h0.12c0.735-0.705,1.305-0.885,2.04-0.885c1.23,0,2.145,0.69,2.145,2.445v5.535H254.591z"
				/>
			<path fill="#FFFFFF" d="M263.081,108.745h-2.535c-0.915-2.355-1.785-4.92-2.475-7.725c0.69-0.09,1.695-0.15,2.475-0.15
				l1.125,4.035c0.075,0.24,0.15,0.675,0.18,1.065h0.12c0.03-0.39,0.09-0.81,0.165-1.08l1.125-4.02c0.675,0,1.83,0.06,2.355,0.15
				C264.956,103.66,264.085,106.12,263.081,108.745z"/>
			<path fill="#FFFFFF" d="M269.996,108.895c-2.19,0-3.705-1.23-3.705-4.065c0-2.55,1.545-4.064,3.735-4.064
				c2.115,0,3.72,1.14,3.72,4.064C273.746,107.485,272.095,108.895,269.996,108.895z M270.025,102.775
				c-0.72,0-1.095,0.435-1.095,2.055c0,1.65,0.3,2.055,1.065,2.055c0.75,0,1.14-0.405,1.14-2.055
				C271.135,103.21,270.76,102.775,270.025,102.775z"/>
			<path fill="#FFFFFF" d="M276.55,100.195c-0.9,0-1.35-0.615-1.35-1.29c0-0.66,0.435-1.32,1.365-1.32c0.915,0,1.35,0.645,1.35,1.32
				C277.916,99.596,277.465,100.195,276.55,100.195z M275.32,108.745v-7.83h2.475v7.83H275.32z"/>
			<path fill="#FFFFFF" d="M282.01,108.895c-1.035,0-1.979-0.21-2.745-0.66c0.12-0.675,0.345-1.5,0.585-2.145
				c0.75,0.405,1.785,0.69,2.445,0.69c0.3,0,0.42-0.15,0.42-0.405c0-0.765-3.345-0.27-3.345-2.91c0-1.845,1.665-2.7,3.465-2.7
				c0.54,0,1.425,0.09,2.16,0.3c-0.03,0.63-0.15,1.485-0.315,2.115c-0.705-0.21-1.725-0.375-2.31-0.375
				c-0.3,0-0.436,0.15-0.436,0.42c0,0.78,3.33,0.27,3.33,3.044C285.265,108.04,283.9,108.895,282.01,108.895z"/>
			<path fill="#FFFFFF" d="M289.045,108.895c-1.035,0-1.98-0.21-2.745-0.66c0.12-0.675,0.345-1.5,0.585-2.145
				c0.75,0.405,1.785,0.69,2.445,0.69c0.3,0,0.42-0.15,0.42-0.405c0-0.765-3.345-0.27-3.345-2.91c0-1.845,1.665-2.7,3.465-2.7
				c0.54,0,1.425,0.09,2.16,0.3c-0.03,0.63-0.15,1.485-0.315,2.115c-0.705-0.21-1.725-0.375-2.31-0.375
				c-0.3,0-0.435,0.15-0.435,0.42c0,0.78,3.33,0.27,3.33,3.044C292.3,108.04,290.935,108.895,289.045,108.895z"/>
			<path fill="#FFFFFF" d="M300.235,105.52h-4.125v0.12c0,0.81,0.42,1.065,1.365,1.065c0.615,0,1.29-0.135,2.205-0.6
				c0.24,0.705,0.45,1.575,0.54,2.22c-1.125,0.45-2.07,0.57-2.775,0.57c-2.564,0-4.004-1.365-4.004-4.005
				c0-2.79,1.545-4.125,3.555-4.125c2.31,0,3.3,1.335,3.3,3.45C300.295,104.575,300.28,105.085,300.235,105.52z M296.125,104.065
				h1.665c0.015-0.135,0.015-0.255,0.015-0.39c0-0.795-0.24-1.185-0.795-1.185C296.485,102.49,296.125,102.896,296.125,104.065z"/>
		</g>
		<g>
			<g>
				<path fill="#FFFFFF" d="M395.643,167.745c0,1.657-1.343,3-3,3h-107c-1.657,0-3-1.343-3-3v-22c0-1.657,1.343-3,3-3h107
					c1.657,0,3,1.343,3,3V167.745z"/>
			</g>
			
				<polyline fill="none" stroke="#8CC861" stroke-width="2" stroke-linecap="round" stroke-linejoin="round" stroke-miterlimit="10" points="
				380.375,157.919 382.297,159.841 385.617,156.521 			"/>
			
				<line opacity="0.05" fill="none" stroke="#070707" stroke-miterlimit="10" x1="371.143" y1="142.745" x2="371.143" y2="170.745"/>
			<g opacity="0.8">
				
					<path fill="none" stroke="#444444" stroke-width="2" stroke-linecap="round" stroke-linejoin="round" stroke-miterlimit="10" d="
					M294.643,156.245c1.571,0,1.571,4,3.142,4c1.569,0,1.569-4,3.138-4c1.57,0,1.57,4,3.141,4s1.571-4,3.142-4s1.571,4,3.143,4
					c1.574,0,1.574-4,3.147-4s1.574,4,3.147,4"/>
			</g>
			<g>
				
					<path fill="none" stroke="#8CC861" stroke-width="2" stroke-linecap="round" stroke-linejoin="round" stroke-miterlimit="10" d="
					M348.643,156.245c1.398,0,1.398,4,2.797,4s1.399-4,2.798-4c1.399,0,1.399,4,2.799,4c1.401,0,1.401-4,2.803-4
					c1.402,0,1.402,4,2.803,4"/>
			</g>
		</g>
		<g>
			<g>
				<path fill="#FFFFFF" d="M265.643,167.745c0,1.657-1.343,3-3,3h-107c-1.657,0-3-1.343-3-3v-22c0-1.657,1.343-3,3-3h107
					c1.657,0,3,1.343,3,3V167.745z"/>
			</g>
			
				<polyline fill="none" stroke="#8CC861" stroke-width="2" stroke-linecap="round" stroke-linejoin="round" stroke-miterlimit="10" points="
				250.375,157.919 252.297,159.841 255.617,156.521 			"/>
			
				<line opacity="0.05" fill="none" stroke="#070707" stroke-miterlimit="10" x1="241.143" y1="142.745" x2="241.143" y2="170.745"/>
			<g opacity="0.8">
				
					<path fill="none" stroke="#444444" stroke-width="2" stroke-linecap="round" stroke-linejoin="round" stroke-miterlimit="10" d="
					M164.643,156.245c1.414,0,1.414,4,2.829,4c1.416,0,1.416-4,2.832-4s1.416,4,2.832,4c1.417,0,1.417-4,2.833-4
					c1.419,0,1.419,4,2.837,4s1.418-4,2.837-4"/>
			</g>
			<g>
				
					<path fill="none" stroke="#8CC861" stroke-width="2" stroke-linecap="round" stroke-linejoin="round" stroke-miterlimit="10" d="
					M215.643,156.245c1.499,0,1.499,4,2.997,4c1.499,0,1.499-4,2.998-4s1.499,4,2.999,4c1.501,0,1.501-4,3.003-4s1.501,4,3.003,4"/>
			</g>
		</g>
		<g>
			<g>
				<path fill="#FFFFFF" d="M265.643,210.745c0,1.657-1.343,3-3,3h-107c-1.657,0-3-1.343-3-3v-22c0-1.657,1.343-3,3-3h107
					c1.657,0,3,1.343,3,3V210.745z"/>
			</g>
			
				<polyline fill="none" stroke="#8CC861" stroke-width="2" stroke-linecap="round" stroke-linejoin="round" stroke-miterlimit="10" points="
				250.375,200.919 252.297,202.841 255.617,199.521 			"/>
			
				<line opacity="0.05" fill="none" stroke="#070707" stroke-miterlimit="10" x1="241.143" y1="185.745" x2="241.143" y2="213.745"/>
			<g opacity="0.8">
				
					<path fill="none" stroke="#444444" stroke-width="2" stroke-linecap="round" stroke-linejoin="round" stroke-miterlimit="10" d="
					M164.643,199.245c1.555,0,1.555,4,3.109,4c1.555,0,1.555-4,3.11-4c1.555,0,1.555,4,3.11,4c1.553,0,1.553-4,3.106-4
					c1.555,0,1.555,4,3.11,4s1.555-4,3.11-4c1.556,0,1.556,4,3.111,4c1.558,0,1.558-4,3.116-4s1.558,4,3.116,4"/>
			</g>
			<g>
				
					<path fill="none" stroke="#8CC861" stroke-width="2" stroke-linecap="round" stroke-linejoin="round" stroke-miterlimit="10" d="
					M218.643,199.245c1.398,0,1.398,4,2.797,4s1.399-4,2.798-4c1.399,0,1.399,4,2.799,4c1.401,0,1.401-4,2.803-4
					c1.402,0,1.402,4,2.803,4"/>
			</g>
		</g>
	</g>
</g>
<path fill="#030302" d="M473.643,297.745V35.959c0-7.851-6.636-14.214-14.485-14.214H90.169c-7.85,0-13.526,6.363-13.526,14.214
	v261.786H473.643z M274.379,33.431c1.256,0,2.274,1.018,2.274,2.274c0,1.256-1.019,2.274-2.274,2.274s-2.274-1.019-2.274-2.274
	C272.105,34.448,273.124,33.431,274.379,33.431z M445.643,262.745h-342v-214h342V262.745z"/>
<g>
	<path fill="#A09F9F" d="M518.59,300.745h-0.211v0.031C518.379,300.825,518.679,300.745,518.59,300.745z"/>
</g>
<path fill="#838384" d="M30.643,297.745v2.714c0,0.156-0.186,0.286,0.094,0.286c8.038,5,17.243,8,27.025,8h433.803
	c9.782,0,18.987-3,27.025-8h0.053v-3H30.643z"/>
<path fill="#A09F9F" d="M309.032,287.745c-0.287,3-2.721,5-5.656,5h-57.424c-2.935,0-5.369-2-5.656-5H30.379v12.714
	c0,0.156,0.078,0.286,0.357,0.286h487.643v-13H309.032z"/>
</svg>
